<?xml version="1.0" encoding="utf-8"?><svg xmlns="http://www.w3.org/2000/svg" xmlns:xlink="http://www.w3.org/1999/xlink"><symbol viewBox="0 0 24 24" id="icon-arrow-down" xmlns="http://www.w3.org/2000/svg"><path d="M7.406 8.578L12 13.172l4.594-4.594L18 9.984l-6 6-6-6z"/></symbol><symbol viewBox="0 0 6 6" id="icon-dot" xmlns="http://www.w3.org/2000/svg"><circle data-name="Эллипс 2" cx="3" cy="3" r="3" fill="#bbb"/></symbol><symbol viewBox="0 0 28 28" id="icon-envelope" xmlns="http://www.w3.org/2000/svg"><path d="M26 23.5v-12a8.408 8.408 0 01-1.078 1.031c-2.234 1.719-4.484 3.469-6.656 5.281-1.172.984-2.625 2.188-4.25 2.188h-.031c-1.625 0-3.078-1.203-4.25-2.188-2.172-1.813-4.422-3.563-6.656-5.281A8.411 8.411 0 012.001 11.5v12c0 .266.234.5.5.5h23c.266 0 .5-.234.5-.5zm0-16.422C26 6.687 26.094 6 25.5 6h-23c-.266 0-.5.234-.5.5 0 1.781.891 3.328 2.297 4.438a980.43 980.43 0 016.266 4.953c.828.672 2.328 2.109 3.422 2.109h.031c1.094 0 2.594-1.437 3.422-2.109a946.207 946.207 0 016.266-4.953c1.016-.797 2.297-2.531 2.297-3.859zm2-.578v17c0 1.375-1.125 2.5-2.5 2.5h-23A2.507 2.507 0 010 23.5v-17C0 5.125 1.125 4 2.5 4h23C26.875 4 28 5.125 28 6.5z"/></symbol><symbol fill="none" viewBox="0 0 40 44" id="icon-file" xmlns="http://www.w3.org/2000/svg"><path d="M0 0h40v44H0z"/><path d="M8 6.844v37h31.579V16.228l-.444-.445-9.473-8.539-.495-.4H8zm3.158 2.847h15.79v8.538h9.473V41H11.158V9.69zm18.947 2.046l4.047 3.646h-4.047v-3.646zm-14.21 9.338v2.846h15.79v-2.846h-15.79zm0 5.692v2.847h15.79v-2.847h-15.79zm0 5.693v2.846h15.79V32.46h-15.79z" fill="#fff"/><ellipse cx="9.5" cy="8.311" rx="8.5" ry="8.311" fill="#fff"/><path fill="#3e9cdc" d="M11.158 2.933h-3V13.69h3z"/><path fill="#3e9cdc" d="M4 6.844h11v2.933H4z"/></symbol><symbol viewBox="0 0 24 28" id="icon-file-1" xmlns="http://www.w3.org/2000/svg"><path d="M22.937 5.938c.578.578 1.062 1.734 1.062 2.562v18a1.5 1.5 0 01-1.5 1.5h-21a1.5 1.5 0 01-1.5-1.5v-25a1.5 1.5 0 011.5-1.5h14c.828 0 1.984.484 2.562 1.062zM16 2.125V8h5.875c-.094-.266-.234-.531-.344-.641L16.64 2.468c-.109-.109-.375-.25-.641-.344zM22 26V10h-6.5A1.5 1.5 0 0114 8.5V2H2v24h20zM6 12.5c0-.281.219-.5.5-.5h11c.281 0 .5.219.5.5v1c0 .281-.219.5-.5.5h-11a.494.494 0 01-.5-.5v-1zM17.5 16c.281 0 .5.219.5.5v1c0 .281-.219.5-.5.5h-11a.494.494 0 01-.5-.5v-1c0-.281.219-.5.5-.5h11zm0 4c.281 0 .5.219.5.5v1c0 .281-.219.5-.5.5h-11a.494.494 0 01-.5-.5v-1c0-.281.219-.5.5-.5h11z"/></symbol><symbol viewBox="0 0 30 28" id="icon-money" xmlns="http://www.w3.org/2000/svg"><path d="M12 18h6v-1.5h-2v-7h-1.781l-2.312 2.141 1.203 1.25c.375-.328.609-.5.859-.891H14v4.5h-2V18zm8-4c0 2.844-1.719 6.5-5 6.5s-5-3.656-5-6.5 1.719-6.5 5-6.5 5 3.656 5 6.5zm8 4v-8c-2.203 0-4-1.797-4-4H6c0 2.203-1.797 4-4 4v8c2.203 0 4 1.797 4 4h18c0-2.203 1.797-4 4-4zm2-13v18c0 .547-.453 1-1 1H1c-.547 0-1-.453-1-1V5c0-.547.453-1 1-1h28c.547 0 1 .453 1 1z"/></symbol><symbol viewBox="0 0 24 28" id="icon-percent" xmlns="http://www.w3.org/2000/svg"><path d="M20 20c0-1.094-.906-2-2-2s-2 .906-2 2 .906 2 2 2 2-.906 2-2zM8 8c0-1.094-.906-2-2-2s-2 .906-2 2 .906 2 2 2 2-.906 2-2zm16 12c0 3.313-2.688 6-6 6s-6-2.688-6-6 2.688-6 6-6 6 2.688 6 6zM22.5 3c0 .219-.078.422-.203.594l-16.5 22C5.61 25.844 5.313 26 5 26H2.5c-.547 0-1-.453-1-1 0-.219.078-.422.203-.594l16.5-22C18.39 2.156 18.687 2 19 2h2.5c.547 0 1 .453 1 1zM12 8c0 3.313-2.688 6-6 6s-6-2.688-6-6 2.688-6 6-6 6 2.688 6 6z"/></symbol><symbol viewBox="0 0 50 50" id="icon-qiwi" xmlns="http://www.w3.org/2000/svg"><path d="M23.5 0C11.093 0 1 10.093 1 22.5S11.093 45 23.5 45c2.595 0 4.436-.296 6.059-.557C30.977 44.215 32.315 44 34 44c8.165 0 13.199 5.603 13.248 5.66a1.002 1.002 0 001.291.18 1 1 0 00.373-1.248c-.11-.248-2.827-6.108-13.719-8.63l-.297-.081c-2.692-.666-4.866-1.75-6.459-3.225-2.058-1.902-2.45-3.822-2.453-3.834a1.01 1.01 0 00-1.074-.818A1 1 0 0024 33c0 .102.007 2.09.354 3.969-.298.02-.581.031-.854.031C15.505 37 9 30.495 9 22.5S15.505 8 23.5 8 38 14.505 38 22.5c0 .596-.037 1.199-.113 1.799A27.622 27.622 0 0034 24c-.582 0-1 .5-1 1.02.012.543.455.979.998.98.02 0 2.1.02 3.963 1.217 3.087 1.984 3.826 4.98 3.832 5.006.093.412.435.72.855.77.417.042.826-.17 1.014-.55A22.244 22.244 0 0046 22.5C46 10.093 35.907 0 23.5 0zm15.135 32.002a.555.555 0 00-.541.275c-.212.371-.054 1.106.373 1.746.433.648.8.977 1.092.977.268 0 .536-.335.41-1.146-.075-.484-.358-1.536-1.073-1.795a.937.937 0 00-.261-.057zM35.367 35c-.449 0-.823.117-1.053.342-.59.578-.324 1.593.579 2.22.395.274.962.438 1.52.438.566 0 1.04-.17 1.333-.477.525-.56.224-1.352-.77-2.02A2.927 2.927 0 0035.368 35z"/></symbol><symbol viewBox="0 0 26 28" id="icon-search" xmlns="http://www.w3.org/2000/svg"><path d="M18 13c0-3.859-3.141-7-7-7s-7 3.141-7 7 3.141 7 7 7 7-3.141 7-7zm8 13c0 1.094-.906 2-2 2a1.96 1.96 0 01-1.406-.594l-5.359-5.344a10.971 10.971 0 01-6.234 1.937c-6.078 0-11-4.922-11-11s4.922-11 11-11 11 4.922 11 11c0 2.219-.672 4.406-1.937 6.234l5.359 5.359c.359.359.578.875.578 1.406z"/></symbol><symbol viewBox="0 0 31 28" id="icon-vk" xmlns="http://www.w3.org/2000/svg"><path d="M29.953 8.125c.234.641-.5 2.141-2.344 4.594-3.031 4.031-3.359 3.656-.859 5.984 2.406 2.234 2.906 3.313 2.984 3.453 0 0 1 1.75-1.109 1.766l-4 .063c-.859.172-2-.609-2-.609-1.5-1.031-2.906-3.703-4-3.359 0 0-1.125.359-1.094 2.766.016.516-.234.797-.234.797s-.281.297-.828.344h-1.797c-3.953.25-7.438-3.391-7.438-3.391S3.421 16.595.078 8.736c-.219-.516.016-.766.016-.766s.234-.297.891-.297l4.281-.031c.406.063.688.281.688.281s.25.172.375.5c.703 1.75 1.609 3.344 1.609 3.344 1.563 3.219 2.625 3.766 3.234 3.437 0 0 .797-.484.625-4.375-.063-1.406-.453-2.047-.453-2.047-.359-.484-1.031-.625-1.328-.672-.234-.031.156-.594.672-.844.766-.375 2.125-.391 3.734-.375 1.266.016 1.625.094 2.109.203 1.484.359.984 1.734.984 5.047 0 1.062-.203 2.547.562 3.031.328.219 1.141.031 3.141-3.375 0 0 .938-1.625 1.672-3.516.125-.344.391-.484.391-.484s.25-.141.594-.094l4.5-.031c1.359-.172 1.578.453 1.578.453z"/></symbol><symbol viewBox="0 0 48 48" id="icon-webmoney" xmlns="http://www.w3.org/2000/svg"><path fill="#0277bd" d="M16.839 14.527l4.829-4.243 4.242 4.83-4.829 4.242zm3.495 8.281l4.83-4.243 4.242 4.83-4.83 4.242z"/><path d="M23.637 30.994l4.83-4.242 4.242 4.83-4.83 4.241zm11.278 3.315l3.751-3.296 3.296 3.752-3.751 3.295zm-3.025-7.321l3.653-3.208 3.208 3.652-3.652 3.208zm-3.063-7.564l3.652-3.208 3.208 3.652-3.652 3.208zm-3.255-7.085l3.652-3.208 3.208 3.652-3.652 3.208zm7.965-1.695l2.377-2.089 2.09 2.378-2.379 2.089zm3.016 7.086l2.378-2.089 2.089 2.378-2.378 2.089zm2.967 7.085l2.379-2.089 2.089 2.378-2.378 2.089zM16.839 14.527l4.829-4.243 4.242 4.83-4.829 4.242zm3.495 8.281l4.83-4.242 4.242 4.83-4.83 4.241z"/><path d="M23.637 30.995l4.829-4.243 4.242 4.83-4.829 4.242zm11.278 3.314l3.751-3.296 3.296 3.752-3.751 3.295zm-3.025-7.321l3.653-3.208 3.208 3.652-3.652 3.208zm-3.063-7.564l3.652-3.208 3.208 3.652-3.652 3.208zm-3.255-7.084l3.652-3.209 3.208 3.652-3.652 3.208zm7.965-1.696l2.377-2.089 2.09 2.378-2.379 2.089zm3.016 7.086l2.378-2.089 2.089 2.378-2.378 2.089zm2.967 7.084l2.378-2.089 2.09 2.378-2.379 2.089z"/><path d="M32.373 35.204l-4.722 4.148-7.542-8.586 2.194-1.928-5.498-6.258 2.134-1.875-5.628-6.408 8.585-7.543 2.719 3.095 4.836-4.247 2.628 2.992 2.061-1.811A19.865 19.865 0 0024 4C12.954 4 4 12.954 4 24s8.954 20 20 20c4.662 0 8.94-1.608 12.341-4.282l-3.968-4.514z"/></symbol><symbol viewBox="0 0 50 50" id="icon-yandex-money" xmlns="http://www.w3.org/2000/svg"><path d="M42 19h-9V1a1.002 1.002 0 00-1.626-.78c-.143.114-14.325 11.495-18.568 14.707C7.573 18.888 7 20.763 7 23.821V43c0 2.757 2.243 5 5 5h30a1 1 0 001-1V20a1 1 0 00-1-1zm-19.064.271c1.077-1.202 2.651-1.626 3.514-.948.864.679.691 2.204-.386 3.406s-2.65 1.626-3.514.947c-.864-.679-.691-2.203.386-3.405zM14 43l18.534-11.706a1 1 0 00.466-.845V21h5v14.25a1 1 0 01-.72.96L14 43z"/></symbol></svg>