<svg width="40" height="44" viewBox="0 0 40 44" fill="none" xmlns="http://www.w3.org/2000/svg">
<rect width="40" height="44" fill="none"/>
<path d="M8 6.84445V43.8445H39.5789V16.2282L39.1353 15.7828L29.6616 7.24434L29.1674 6.84445H8ZM11.1579 9.69061H26.9474V18.2291H36.421V40.9983H11.1579V9.69061ZM30.1053 11.737L34.1521 15.3829H30.1053V11.737ZM15.8947 21.0752V23.9214H31.6842V21.0752H15.8947ZM15.8947 26.7675V29.6137H31.6842V26.7675H15.8947ZM15.8947 32.4598V35.306H31.6842V32.4598H15.8947Z" fill="white"/>
<ellipse cx="9.5" cy="8.31111" rx="8.5" ry="8.31111" fill="white"/>
<rect width="3" height="10.7556" transform="matrix(-1 0 0 1 11.1579 2.93332)" fill="#3e9cdc"/>
<rect x="4" y="6.84442" width="11" height="2.93333" fill="#3e9cdc"/>
</svg>
